<?xml version="1.0" encoding="UTF-8"?>
<svg id="_圖層_1" xmlns="http://www.w3.org/2000/svg" version="1.1" viewBox="0 0 489 510">
  <!-- Generator: Adobe Illustrator 29.1.0, SVG Export Plug-In . SVG Version: 2.1.0 Build 142)  -->
  <defs>
    <style>
      .st0 {
        fill: #a1e7f7;
      }
    </style>
  </defs>
  <path class="st0" d="M221,86.6c-31.3,5.7-59,20.6-79.9,43.1-9.8,10.5-19.6,24.7-25,36.3-4.9,10.6-10.6,29.1-12,39.4-1.4,9.9-1.4,29.6,0,40.9.6,4.9.9,9,.7,9.2-.2.3-6,2.1-12.9,4-33.5,9.8-58.5,24.3-66.4,38.6-2.8,5.1-3,6.1-3.3,19.2-.4,17.6.8,22.2,8.3,30.5,6.9,7.6,17.9,14.9,34.2,22.8,11.5,5.6,38.3,15.9,46.6,17.9,1.7.5,4.4,2.8,7.1,6.4,4.3,5.6,10.7,11.9,15.8,15.6,2.6,1.9,2.7,2.2,1.7,6-2.2,7.9.6,19.2,6.5,26.2,6.1,7.3,19.1,10.4,30.1,7.3,3.9-1,6.4-2.7,11.2-7.6l6.2-6.3,9.3,1.9c16.6,3.5,27.9,4.3,51.2,3.7,20.4-.5,30.4-1.5,43.6-4.6l4.5-1,4.7,5.3c6.2,6.9,12.9,10,21.8,10,10.9-.1,20.3-5.7,24.9-14.9s3.9-15.8,2.3-20.3c-1-2.9-.8-3.2,5.5-8.3,3.6-2.9,8.9-8.2,11.8-11.8l5.3-6.6,14.3-4.8c41.3-13.9,68.1-30.2,75.3-45.7,1.8-4,2.1-6.3,2-19.5-.1-13.6-.3-15.5-2.5-20-7.6-16.1-36.5-32.2-75.8-42.5l-4.3-1.1.6-4.7c4.7-36.8-2.3-71.7-20.1-100-4.5-7.2-17-22.7-21.4-26.7-24.4-21.7-44.5-31.9-74.3-37.6-12-2.3-35.8-2.4-47.6-.3h0ZM265.2,91.5c42.1,6.3,80.3,33.9,100.1,72.3,9.5,18.3,14.1,35.3,15.3,56.2.6,11.2-.9,31.7-2.4,33.1-.4.4-5.9-.3-12.2-1.6-11.7-2.4-41.1-6.8-53.2-8l-6.6-.7,2.9-5c1.7-2.8,4.3-7.8,5.8-11.3,2.5-5.3,3.3-6.3,6.1-6.8,4.4-.9,10.6-7.3,11.8-12.2,1.6-6.2.1-24.3-2.4-28.6-2.3-3.8-8.6-7.9-12.4-7.9s-3.1-1.1-5.7-6.3c-17.3-35.1-63.2-49.9-98.2-31.7-16.5,8.6-31.2,24.9-36.1,40.2-.9,2.9-1.7,3.8-3.3,3.8-3.4,0-8.3,3.5-11.3,8-2.5,3.8-2.7,4.6-2.5,14.8.2,12.1,1.1,16.5,4.4,20.3,2.7,3.3,7.7,5.9,11.1,5.9s2.9.8,4,3.2c.8,1.8,2.5,5,3.7,7,3.1,5.1,1.8,6.4-7.4,7.2-11.4,1.1-41.1,5.6-53.7,8.1-6.3,1.3-11.8,2-12.3,1.6-1.6-1.6-2.9-19.2-2.4-33.1,1.4-34.8,15.8-66.9,41.3-91.7,14.7-14.2,32.9-25.1,52.9-31.7,19.1-6.3,42.5-8.2,62.7-5.1h0ZM265,132.9c12.8,3.7,20.1,8,29.4,16.9,14.3,13.8,21.7,33.1,20.3,53.2-1.8,24.4-17.3,47.1-38.8,56.9-11.4,5.1-13.9,5.6-28.4,5.6s-14.7-.2-22.2-2.8c-36.1-12.4-55.5-53.7-41.6-88.6,7.2-18.2,22.4-33.1,40.5-39.7,12.6-4.6,28.3-5.2,40.8-1.5h0ZM322.4,178.1c4.6,3.6,5.6,6.9,5.6,18.3s-.1,10.6-3.1,14.1c-5,5.7-5.4,5-5.1-9.3.2-8.6-.1-14.7-1.1-19-1.6-7-.9-7.7,3.7-4.1ZM174.3,194.2c-.3,7.2.1,14.1.9,19,.8,4.3,1.3,7.8,1.1,7.8s-1.7-.7-3.3-1.5c-4.5-2.3-6.2-6.8-6.8-17.2-.6-10.9,0-13.7,3.5-16.9,4.6-4.3,5.1-3.5,4.6,8.8h0ZM189.6,254.6l-4.6,4.8v-4c0-2.2.9-5.4,2.1-7.3l2.1-3.4,2.5,2.5,2.5,2.6-4.6,4.8ZM179.6,250.6c-.3.9-.6,5.5-.6,10.3v8.8l-7.2,1.2c-20,3.4-37.8,9.2-44,14.1-2,1.7-4.1,3-4.6,3-1.6,0-12.3-27.3-11.1-28.4,1.8-1.7,53.9-10.3,63.8-10.5,3.5-.1,4.2.2,3.7,1.5ZM303.4,251.2c.3,1.3.6,3.9.6,5.8v3.4l-3-3.4c-3.2-3.9-3.6-5-1.8-6.8s3.5-1.4,4.2,1h0ZM332.6,251.5c10.4,1.4,20.7,3,22.9,3.4,2.2.5,7.9,1.7,12.8,2.7,4.8.9,8.7,2,8.7,2.4,0,1.4-6,17.9-8.6,23.8l-2.4,5.4-3.1-2.6c-7.8-6.6-24-12.1-45.6-15.6l-7.3-1.2v-7.3c0-4-.3-8.7-.6-10.4-.8-3.9-1.5-3.9,23.2-.6h0ZM216.1,265.4c3,1.4,9.2,3.5,13.9,4.7,7.1,1.8,10.3,2.1,20.5,1.6,16.2-.7,24-3.4,40.2-13.7,2-1.3,2.5-1.2,4.9,1,5.2,4.9,12.3,18.1,14.3,26.6,2.6,11,1.1,27.3-2.7,29.3-3,1.6-38.2,4.5-39.5,3.2s-1.1-3.3-1.1-6.1c-.1-4.1.4-5.4,2.6-7.6s3.9-2.8,9.7-3.3c10.1-1,11.6-2.6,11.6-12.9-.1-6-.6-8.6-2.3-12-1.2-2.3-2.7-4.2-3.2-4.2-1.3,0-1.2,5.3.1,11,1.1,4.8.4,11-1.1,11s-1-1.7-1-3.9c0-4.5-1.8-6.4-6.1-6.4s-5.1,1.3-5.7,7.3c-.4,4.3-.9,5.3-3.3,6.6-1.6.8-3.5,2.4-4.3,3.7-2.2,3.3-3.5,10.3-2.6,14.2l.8,3.5h-34.5l.5-5.4c.6-6.9-2.3-13.8-6.7-16.1-2.7-1.3-3.1-2.1-3.1-5.6s-3.4-8.9-6.5-8.9-6.5,4.6-6.6,8.2c0,3.1-.1,3.2-1.1,1-.8-1.6-.8-4.5.2-10.7.7-4.7,1-8.8.6-9.2-1-1.1-4.4,3.6-5.6,7.7-.5,1.9-1,6.1-1,9.2,0,4.5.5,6.2,2.4,8.4,2,2.4,3.4,2.9,9.5,3.5,9.5.8,12.1,3.1,12.1,10.3s.7,8-19.6,6.1c-9.8-.8-18.9-2-20.1-2.5-5-2.1-6.5-16.9-3.1-31,2.2-8.9,9.1-20.8,15.6-26.6l3.4-3.1,6.3,4.2c3.4,2.3,8.7,5.4,11.6,6.9h0ZM108,266.2c3,12.7,13.1,33.9,18.3,38.5,3.2,2.8,17,9.3,19.9,9.3s-4.6,3.1-11.8,6.9c-19.7,10.4-31.7,18.4-44.6,29.7l-4.8,4.2-6.2-2.3c-19.4-7.1-35.2-15.9-43.3-24.2-4.7-4.8-8.5-12.7-8.5-17.6,0-15.6,21-31.5,57.9-43.6,23-7.6,21.6-7.6,23.1-.9ZM392.6,263.5c35,10,59.4,23.9,66.6,37.9,2.7,5.3,2.9,13.8.4,18.5-6.1,11.4-26.3,24.7-49.9,32.7l-7.1,2.4-3-2.8c-10.6-9.9-32.1-24.3-48.3-32.2-8.5-4.1-11-6-8.2-6s17.6-7.3,20.2-9.8c4.6-4.4,15.8-29.2,18.2-40.5.3-1.5.9-2.7,1.4-2.7s4.9,1.1,9.7,2.5h0ZM174.4,280.2c-.3,1.8-1.2,5.1-1.8,7.3-1.3,4.4-.3,3.9-16.4,7.5-5.1,1.2-12.5,3.2-16.3,4.6-6.7,2.4-7,2.4-9.4.7-5.4-3.9-4-8.5,3.7-12.4,9-4.6,30-10.6,37.6-10.8,3.3-.1,3.3,0,2.6,3.1h0ZM329.4,279.5c27.1,6.1,38.8,14.6,29,20.9-2.3,1.6-2.9,1.5-11.2-1.2-4.8-1.6-13.5-4-19.4-5.3l-10.8-2.4-.6-3.5c-.4-1.9-1.3-5.2-2-7.3-.9-2.5-.4-3.7,1.4-3.7s7.6,1.1,13.6,2.5ZM213,291.5c0,2.4-.5,3.5-1.5,3.5s-1.5-1.1-1.5-3.5.5-3.5,1.5-3.5,1.5,1.1,1.5,3.5ZM279,291.5c0,2.4-.5,3.5-1.5,3.5s-1.5-1.1-1.5-3.5.5-3.5,1.5-3.5,1.5,1.1,1.5,3.5ZM173.5,320c20.6,3.4,29.1,4.1,58.5,4.7s58.8-.7,82.5-4.7l17-2.8,10.3,4.6c15.9,7,38.6,21.2,50.6,31.6l3.9,3.3-4.9,1.6c-7.5,2.5-20.5,5.3-39.6,8.7-73.5,12.8-166.9,11.2-236.8-4.1-12.8-2.8-23.2-6-22.8-6.9.5-1.3,11.5-9.8,20.8-16,9.1-6.2,33.2-19.2,40-21.7,1.9-.7,4.6-1,6-.8,1.4.3,7.9,1.4,14.5,2.5h0ZM40,339c6.9,5.2,24.4,13.8,37.5,18.5,28.8,10.4,74.4,18.6,119.5,21.6,21.4,1.4,76.3,1.4,95.5,0,77.9-5.7,137.1-22.2,161.8-45.1,5.4-5,6.8-5.9,6.2-4-2.8,8.8-13.9,18.3-32,27-29.4,14.2-68.2,23.2-124,28.7-25.6,2.5-95.3,2.5-121,0-28-2.8-42.2-5-70.5-10.8-25.9-5.4-59.5-19.1-72.5-29.6-6-4.9-12.5-13.2-12.5-16.1s1.2-.2,3.3,2.1c1.7,2,5.7,5.5,8.7,7.7h0ZM138.2,395.4c14.7,3.5,32.2,6.4,51,8.5,8.7,1,16.1,2.1,16.4,2.4,2.2,2.2-8.9,15-17.2,19.8l-5.4,3.1-6.7-2.2c-9.6-3.1-24.8-10.4-32.8-15.8-7.2-4.9-20.5-16.8-20.5-18.3s0-1,15.2,2.5ZM365.1,393.7c-1.2,2.2-8.1,8.8-14.1,13.5-6.4,5-17.3,11.2-26,14.8-4.1,1.7-8.4,3.5-9.5,4-7.4,3.2-9.4,3.3-14.3.4-6.3-3.7-14.6-11.7-16.7-16-.9-2-1.4-3.8-1.2-4.1.3-.3,7.7-1.3,16.4-2.4,17.9-2.1,40-5.9,54.8-9.4,12.4-2.9,11.8-2.8,10.6-.8h0ZM280.6,413.2c3.3,6.6,8.9,12.9,13.7,15.4,1.5.8,2.7,1.8,2.7,2.3s-1.2,1.1-2.7,1.4c-28.4,5.3-48.1,6.7-68.8,4.8-13.1-1.1-34.5-5-34.5-6.2s1.2-1.2,2.8-1.7c4.4-1.6,11-8.8,14.6-16l3.4-6.7h32.8c0,.1,32.8.3,32.8.3l3.2,6.4h0ZM152.7,421.9c12.4,6.2,26.5,12.1,28.8,12.1s2.4,2.1-1.4,5.9-9.8,7.1-15.6,7.1c-11.3,0-22.6-8.8-24.5-19.1-.7-3.7-.3-11.9.6-11.9s5.7,2.6,12.1,5.9h0ZM348.4,423.8c0,6.9-1.9,10.8-8,16.6-9.7,9.3-23,8.9-32.7-1-3.8-3.9-3.9-5.4-.6-5.4s3.9-.8,6.2-1.9c2.3-1,7.6-3.3,11.7-5s10.7-4.9,14.5-7c4.4-2.4,7.4-3.5,8-2.9.6.5,1,3.5.9,6.6h0Z"/>
  <path class="st0" d="M229,145.5c-27.2,6.9-44.1,29.7-44,59.4.1,16.7,2.9,24.1,13.5,34.6,10.9,11,25.6,17.7,42.1,19.3,22,2.2,41.6-3.7,53.9-16.2,8.7-8.9,13.5-22.6,13.5-38.8s-5.9-31.5-16.9-42.1c-7.7-7.4-13-10.7-23.2-14.4-6.3-2.2-9.3-2.7-20.4-2.9-8.8-.2-14.8.1-18.5,1.1Z"/>
  <path class="st0" d="M71.2,294.1c-6.5,2.5-10.7,7.5-10.7,12.9,0,7.7,5.9,12,16.2,12s12.8-2.5,16.5-6.8c5.7-6.8,4.1-13.8-4.2-18-5.4-2.7-10.8-2.7-17.8-.1ZM88.4,300.1c3.9,3,3.4,6.3-1.4,9.8s-9.7,4.5-14.8,3.2c-7.6-2.1-7.7-9.6-.2-13.3,4.9-2.5,13-2.4,16.4.3Z"/>
  <path class="st0" d="M404.2,293.3c-1.8.6-4.7,2.3-6.4,3.9-2.8,2.6-3,3.3-2.6,7.9.6,6,4,10,10.4,12.5,5.9,2.2,16.3,1.6,20.1-1.2,8.8-6.6,5.6-17.9-6.3-22.3-5.9-2.3-10.1-2.5-15.2-.8ZM418.5,299.4c7.8,3.3,8.4,11,1,13.4-5.2,1.7-10.5.7-15.5-2.9-4.8-3.5-5.3-6.7-1.4-9.8,3.2-2.5,10.7-2.8,15.9-.7Z"/>
  <path class="st0" d="M238.7,331c-7.6,2.3-12.7,9.3-12.7,17.5s7.9,17.8,18.6,17.8,10.4-2.2,14.6-7.4c5.5-6.8,5-15.6-1.4-22.5-5.3-5.8-11.7-7.6-19.1-5.4h0ZM251.8,337.8c7.8,5.1,6.3,18.2-2.4,21.8-7.4,3.1-15.6-1.1-17.3-8.7-2.5-11.4,9.8-19.6,19.7-13.1h0Z"/>
</svg>